<svg width="16" height="6" viewBox="0 0 16 6" fill="none" xmlns="http://www.w3.org/2000/svg">
<g id="Group 5">
<path id="EXPRESS" fill-rule="evenodd" clip-rule="evenodd" d="M15.9998 3.28977H15.1675C14.9164 3.28977 14.7339 3.34974 14.6047 3.44298V3.28977H13.3737C13.1768 3.28977 12.9457 3.33843 12.8364 3.44298V3.28977H10.6381V3.44298C10.4631 3.31715 10.1679 3.28977 10.0317 3.28977H8.58165V3.44298C8.44324 3.30935 8.13544 3.28977 7.94783 3.28977H6.325L5.95363 3.69045L5.60582 3.28977H3.18164V5.90774H5.5602L5.94285 5.50072L6.30332 5.90774L7.76947 5.90904V5.29319H7.91361C8.10814 5.29619 8.33758 5.28838 8.54 5.20114V5.90768H9.74931V5.22535H9.80765C9.8821 5.22535 9.88942 5.22841 9.88942 5.30258V5.90762H13.5631C13.7963 5.90762 14.0401 5.8481 14.1751 5.7401V5.90762H15.3404C15.5829 5.90762 15.8197 5.87373 15.9999 5.78694C15.9999 -8.53676 15.9998 9.28703 15.9998 3.28977Z" fill="#006FCF"/>
<path id="AMERICAN" fill-rule="evenodd" clip-rule="evenodd" d="M0.768431 2.67866L0.941684 2.26202H1.32956L1.50236 2.67866H3.01419V2.36012L3.14914 2.68001H3.93397L4.06892 2.35537V2.67866H7.82612L7.82436 1.99474H7.89706C7.94796 1.9965 7.96283 2.00119 7.96283 2.08499V2.67866H9.90607V2.51945C10.0628 2.60318 10.3066 2.67866 10.6274 2.67866H11.4449L11.6199 2.26202H12.0077L12.1788 2.67866H13.7542V2.2829L13.9928 2.67866H15.2552V0.0625H14.0059V0.371471L13.8309 0.0625H12.5489V0.371471L12.3882 0.0625H10.6566C10.3667 0.0625 10.1119 0.10284 9.90607 0.21526V0.0625H8.71106V0.21526C8.58008 0.0993887 8.40161 0.0625 8.20316 0.0625H3.83733L3.54439 0.738208L3.24357 0.0625H1.86844V0.371471L1.71738 0.0625H0.544615L0 1.30636V2.67866H0.768431Z" fill="#006FCF"/>
<g id="Subtract">
<path fill-rule="evenodd" clip-rule="evenodd" d="M7.93369 4.90714C8.32678 4.90714 8.71682 4.79952 8.71682 4.27833C8.71682 3.75872 8.31583 3.66022 7.95894 3.66022H6.52196L5.94993 4.27522L5.39663 3.66022H3.58789V5.53645H5.36922L5.94471 4.91534L6.49846 5.53645H7.37256V4.90714H7.93369ZM7.37256 4.5261H7.95372C8.12652 4.5261 8.234 4.44061 8.234 4.27834C8.234 4.11427 8.1213 4.0483 7.95894 4.0483H7.37256V4.5261ZM5.14155 5.14545H4.03586V4.77215H5.02317V4.38935H4.03586V4.04824H5.16334L5.65524 4.59501L5.14155 5.14545ZM6.92464 5.36583L6.23418 4.60157L6.92464 3.86159V5.36583Z" fill="white"/>
<path fill-rule="evenodd" clip-rule="evenodd" d="M10.6401 4.82204C10.6017 4.76739 10.5199 4.70136 10.4198 4.66453C10.5382 4.61768 10.7385 4.46487 10.7385 4.1654C10.7385 3.95137 10.6493 3.83425 10.5073 3.74876C10.3597 3.67023 10.1939 3.66022 9.96625 3.66022H8.92798V5.53645H9.37987V4.85118H9.86047C10.0245 4.85118 10.1247 4.86725 10.1904 4.93446C10.2656 5.013 10.2643 5.15627 10.2633 5.26642C10.2632 5.27863 10.2631 5.29044 10.2631 5.30171V5.53645H10.7146V5.16451C10.7128 4.99913 10.7036 4.91364 10.6401 4.82204ZM10.1482 4.43104C10.088 4.46663 10.0136 4.46969 9.92613 4.46969H9.37981V4.0483H9.93356C10.0136 4.0483 10.0938 4.04999 10.1482 4.08219C10.2065 4.11257 10.2413 4.17067 10.2413 4.25096C10.2413 4.33124 10.2065 4.39591 10.1482 4.43104Z" fill="white"/>
<path d="M14.2062 4.5469C14.2937 4.63726 14.3406 4.75132 14.3406 4.94442C14.3406 5.34805 14.0877 5.53645 13.6342 5.53645H12.7583V5.13413H13.6307C13.716 5.13413 13.7765 5.12287 13.8144 5.08768C13.8453 5.05865 13.8675 5.0165 13.8675 4.9653C13.8675 4.91064 13.8435 4.86725 13.8126 4.84122C13.7782 4.81259 13.7308 4.79958 13.6525 4.79958C13.6249 4.79864 13.5969 4.79788 13.5687 4.79712C13.1652 4.78618 12.7052 4.77372 12.7052 4.21887C12.7052 3.94673 12.8767 3.66027 13.3482 3.66027H14.2497V4.0596H13.4248C13.343 4.0596 13.2898 4.06266 13.2446 4.09349C13.1954 4.12387 13.1771 4.16896 13.1771 4.22848C13.1771 4.29926 13.2189 4.34741 13.2755 4.36823C13.3229 4.3847 13.3739 4.38951 13.4505 4.38951L13.6926 4.39601C13.9367 4.40195 14.1043 4.44405 14.2062 4.5469Z" fill="white"/>
<path d="M16 4.05948H15.1804C15.0986 4.05948 15.0442 4.06254 14.9984 4.09337C14.951 4.12375 14.9327 4.16885 14.9327 4.22837C14.9327 4.29915 14.9728 4.34729 15.031 4.36811C15.0785 4.38458 15.1294 4.38939 15.2044 4.38939L15.4481 4.39589C15.694 4.40195 15.8582 4.4441 15.9583 4.5469C15.9737 4.55898 15.9839 4.57231 15.9942 4.58584L15.997 4.5895L15.9988 4.59182L16 4.59335V5.29645C15.8908 5.45572 15.6779 5.53645 15.3898 5.53645H14.5213V5.13413H15.3862C15.472 5.13413 15.5321 5.12287 15.5682 5.08768C15.5996 5.05866 15.6214 5.0165 15.6214 4.9653C15.6214 4.91065 15.5996 4.86725 15.5665 4.84123C15.5338 4.8126 15.4863 4.79959 15.408 4.79959C15.3804 4.79865 15.3523 4.79789 15.324 4.79713C14.9191 4.78619 14.459 4.77376 14.459 4.21887C14.459 3.94673 14.6323 3.66028 15.1042 3.66028H16L16 4.05948Z" fill="white"/>
<path d="M10.9879 3.66022H12.4888V4.04823H11.4358V4.38934H12.4631V4.77214H11.4358V5.14544L12.4888 5.14714V5.53645H10.9879V3.66022Z" fill="white"/>
</g>
<path id="AMERICAN_2" fill-rule="evenodd" clip-rule="evenodd" d="M1.44236 1.49801L1.13455 0.750226L0.82851 1.49801H1.44236ZM8.22323 1.20026C8.16143 1.23766 8.08834 1.23891 8.00078 1.23891H7.45446V0.822268H8.00821C8.08658 0.822268 8.16836 0.825776 8.22147 0.856102C8.27981 0.883429 8.3159 0.941591 8.3159 1.02193C8.3159 1.10391 8.28157 1.16988 8.22323 1.20026ZM12.1206 1.49801L11.8094 0.750226L11.4999 1.49801H12.1206ZM4.85566 2.30742H4.39464L4.39293 0.838322L3.74084 2.30742H3.34598L2.69218 0.83702V2.30742H1.77751L1.60471 1.88903H0.668363L0.493805 2.30742H0.00537109L0.810688 0.431641H1.47884L2.2437 2.20762V0.431641H2.97768L3.56622 1.70413L4.10687 0.431641H4.8556V2.30742H4.85566ZM6.69313 2.30742H5.19082V0.431641H6.69313V0.822254H5.64056V1.16036H6.66787V1.54487H5.64056V1.91947H6.69313V2.30742ZM8.81131 0.936824C8.81131 1.23589 8.6111 1.39041 8.49443 1.4368C8.59283 1.47414 8.67688 1.54011 8.71688 1.59477C8.78039 1.68806 8.79134 1.7714 8.79134 1.93893V2.30742H8.33775L8.33604 2.07087C8.33604 1.958 8.34688 1.79567 8.26505 1.70543C8.19934 1.63946 8.09918 1.62515 7.93727 1.62515H7.45451V2.30742H7.00484V0.431641H8.03919C8.26902 0.431641 8.43836 0.437694 8.58375 0.521486C8.72602 0.605278 8.81131 0.727599 8.81131 0.936824ZM9.531 2.30742H9.07213V0.431641H9.531V2.30742ZM14.8545 2.30742H14.2172L13.3648 0.899539V2.30742H12.4489L12.2739 1.88903H11.3397L11.1699 2.30742H10.6437C10.4251 2.30742 10.1483 2.25922 9.99157 2.09995C9.83352 1.94068 9.7513 1.72495 9.7513 1.38384C9.7513 1.10565 9.80044 0.851335 9.99373 0.65037C10.1391 0.500666 10.3668 0.431641 10.6767 0.431641H11.1121V0.833569H10.6858C10.5217 0.833569 10.429 0.857898 10.3398 0.944688C10.2631 1.02367 10.2105 1.17298 10.2105 1.36959C10.2105 1.57055 10.2506 1.71545 10.3342 1.8101C10.4034 1.88433 10.5292 1.90685 10.6476 1.90685H10.8496L11.4834 0.431697H12.1572L12.9186 2.20592V0.431697H13.6033L14.3938 1.73808V0.431697H14.8545V2.30742Z" fill="white"/>
</g>
</svg>
