<svg width="16" height="16" viewBox="0 0 16 16" fill="none" xmlns="http://www.w3.org/2000/svg">
<g id="Icon / 24 / Check">
<path id="Vector" opacity="0.99" d="M6.87505 10.7292C6.78749 10.7293 6.70078 10.7121 6.61989 10.6785C6.53901 10.645 6.46554 10.5958 6.40372 10.5338L4.52872 8.65885C4.40501 8.53357 4.33588 8.36444 4.33643 8.18837C4.33698 8.01231 4.40716 7.84361 4.53166 7.71912C4.65615 7.59462 4.82484 7.52443 5.00091 7.52387C5.17697 7.52331 5.34611 7.59243 5.47139 7.71614L6.87503 9.11979L10.5287 5.46614C10.654 5.34243 10.8231 5.27331 10.9992 5.27387C11.1753 5.27443 11.344 5.34462 11.4685 5.46912C11.5929 5.59361 11.6631 5.76231 11.6637 5.93837C11.6642 6.11444 11.5951 6.28357 11.4714 6.40885L7.34639 10.5338C7.28456 10.5958 7.2111 10.645 7.13021 10.6785C7.04932 10.7121 6.96261 10.7293 6.87505 10.7292Z" fill="#6675FF"/>
<path id="Vector_2" d="M8.00004 1.33331C6.6815 1.33331 5.39257 1.72431 4.29624 2.45685C3.19991 3.18939 2.34543 4.23058 1.84085 5.44876C1.33626 6.66693 1.20424 8.00738 1.46148 9.30058C1.71871 10.5938 2.35365 11.7817 3.286 12.714C4.21835 13.6464 5.40624 14.2813 6.69944 14.5386C7.99265 14.7958 9.33309 14.6638 10.5513 14.1592C11.7694 13.6546 12.8106 12.8001 13.5432 11.7038C14.2757 10.6075 14.6667 9.31852 14.6667 7.99998C14.6647 6.23249 13.9617 4.53797 12.7119 3.28817C11.4621 2.03836 9.76753 1.33534 8.00004 1.33331ZM11.4714 6.40883L7.34638 10.5338C7.28449 10.5958 7.21101 10.6449 7.13013 10.6784C7.04926 10.7119 6.96257 10.7291 6.87502 10.7291C6.78748 10.7291 6.70079 10.7119 6.61992 10.6784C6.53904 10.6449 6.46556 10.5958 6.40367 10.5338L4.52871 8.65883C4.405 8.53356 4.33587 8.36443 4.33642 8.18836C4.33697 8.0123 4.40715 7.8436 4.53165 7.7191C4.65614 7.5946 4.82483 7.52441 5.0009 7.52386C5.17696 7.5233 5.3461 7.59242 5.47138 7.71613L6.87502 9.11977L10.5287 5.46613C10.654 5.34242 10.8231 5.2733 10.9992 5.27386C11.1753 5.27441 11.3439 5.3446 11.4684 5.4691C11.5929 5.5936 11.6631 5.7623 11.6637 5.93836C11.6642 6.11443 11.5951 6.28356 11.4714 6.40883Z" fill="#C2C8FF"/>
</g>
</svg>
