<svg width="16" height="14" viewBox="0 0 16 14" fill="none" xmlns="http://www.w3.org/2000/svg">
<g id="Group 6">
<path id="Fill 42" fill-rule="evenodd" clip-rule="evenodd" d="M0.289551 7.12841C0.289551 3.44102 3.27873 0.451843 6.96597 0.451843C10.6533 0.451843 13.6425 3.44102 13.6425 7.12841C13.6425 10.8158 10.6533 13.8051 6.96597 13.8051C3.27873 13.8051 0.289551 10.8158 0.289551 7.12841Z" fill="#FFFFFE"/>
<path id="Fill 43" fill-rule="evenodd" clip-rule="evenodd" d="M11.0038 6.99696C11.0011 5.2872 9.93239 3.82902 8.42646 3.25153V10.7421C9.93239 10.1639 11.0011 8.70703 11.0038 6.99696ZM5.55367 10.7406V3.25232C4.04908 3.8316 2.982 5.28769 2.97797 6.99701C2.982 8.70588 4.04908 10.1618 5.55367 10.7406ZM6.99083 0.665694C3.4943 0.667037 0.661503 3.50043 0.660906 6.99696C0.661503 10.493 3.4943 13.326 6.99083 13.3266C10.4874 13.326 13.3208 10.493 13.3217 6.99696C13.3208 3.50043 10.4874 0.667037 6.99083 0.665694ZM6.9753 13.9241C3.14915 13.9423 0 10.8425 0 7.0692C0 2.94535 3.14915 0.093004 6.9753 0.0937501H8.76834C12.5493 0.093004 16 2.94401 16 7.0692C16 10.8412 12.5493 13.9241 8.76834 13.9241H6.9753Z" fill="#0069AA"/>
</g>
</svg>
