<svg width="18" height="19" viewBox="0 0 18 19" fill="none" xmlns="http://www.w3.org/2000/svg">
<rect x="0.5" y="1" width="17" height="17" rx="3.5" fill="#6675FF" stroke="#6675FF"/>
<path d="M14.361 6.84534L7.61097 13.5953C7.57179 13.6346 7.52526 13.6657 7.47404 13.6869C7.42283 13.7081 7.36793 13.7191 7.31249 13.7191C7.25705 13.7191 7.20215 13.7081 7.15094 13.6869C7.09972 13.6657 7.05319 13.6346 7.01401 13.5953L4.06089 10.6422C3.98173 10.5631 3.93726 10.4557 3.93726 10.3437C3.93726 10.2318 3.98173 10.1244 4.06089 10.0453C4.14005 9.9661 4.24742 9.92163 4.35937 9.92163C4.47132 9.92163 4.57868 9.9661 4.65784 10.0453L7.31249 12.7004L13.764 6.24839C13.8432 6.16923 13.9505 6.12476 14.0625 6.12476C14.1744 6.12476 14.2818 6.16923 14.361 6.24839C14.4401 6.32755 14.4846 6.43492 14.4846 6.54687C14.4846 6.65882 14.4401 6.76618 14.361 6.84534Z" fill="white"/>
</svg>
