<?xml version="1.0" encoding="UTF-8"?><svg id="a" xmlns="http://www.w3.org/2000/svg" viewBox="0 0 89.29 83.83"><defs><style>.b{fill:#fff;}.c{fill:#6675ff;}</style></defs><g><path class="c" d="M39.75,83.24L1.09,66.06c-.36-.16-.59-.52-.59-.91V16.53c0-.41,.25-.78,.64-.93L39.79,.57c.24-.09,.5-.09,.74,0l37.61,15.19c.14,.06,.27,.15,.38,.27l10.02,11.36c.43,.48,.29,1.24-.28,1.54l-9.37,5c-.33,.17-.53,.51-.53,.88v30.34c0,.39-.23,.74-.58,.91l-37.2,17.17c-.26,.12-.56,.12-.83,0Z"/><path class="c" d="M40.16,83.83c-.21,0-.41-.04-.61-.13h0L.89,66.52c-.54-.24-.89-.78-.89-1.37V16.53c0-.62,.38-1.17,.96-1.4L39.61,.1c.36-.14,.75-.14,1.11,0l37.61,15.19c.22,.09,.41,.23,.56,.4l10.02,11.36c.31,.35,.43,.81,.35,1.26-.08,.45-.36,.84-.77,1.06l-9.37,5c-.16,.09-.26,.26-.26,.44v30.34c0,.58-.34,1.12-.87,1.36l-37.2,17.17c-.2,.09-.42,.14-.63,.14Zm-.2-1.04c.13,.06,.28,.06,.41,0l37.2-17.17c.18-.08,.29-.26,.29-.45v-30.34c0-.56,.3-1.06,.79-1.32l9.37-5c.14-.07,.23-.2,.26-.35s-.02-.3-.12-.42l-10.02-11.36c-.05-.06-.12-.1-.19-.13L40.34,1.04c-.12-.05-.25-.05-.37,0L1.32,16.07c-.19,.07-.32,.26-.32,.47v48.61c0,.2,.12,.38,.3,.46l38.65,17.18Z"/></g><path class="b" d="M39.75,31.82L8.52,17.57c-.8-.37-.77-1.52,.05-1.84L39.8,3.51c.23-.09,.49-.09,.73,0l31.22,12.22c.82,.32,.85,1.47,.05,1.84l-31.22,14.25c-.26,.12-.57,.12-.83,0Z"/><path class="b" d="M41.63,78.21V38.62l7.58,8.96c.29,.35,.78,.45,1.19,.26l25.75-12.16v28c0,.39-.23,.75-.59,.91l-32.52,14.53c-.66,.3-1.41-.19-1.41-.91Z"/><polygon class="c" points="55.01 73.88 55.01 57.13 65.73 52.7 65.73 69.09 55.01 73.88"/></svg>